<svg width="33" height="32" viewBox="0 0 33 32" fill="none" xmlns="http://www.w3.org/2000/svg">
<path d="M14.4998 3.16425C17.3262 6.40733 8.62695 8.61004 4.63598 6.17739C2.97297 5.14102 3.73786 3.13825 7.77165 2.04989C9.79034 1.49272 12.6167 0.986196 14.4998 3.16425Z" fill="black"/>
<path d="M32.2921 1.73732C35.3671 5.26765 25.8922 7.6663 21.5491 5.01772C19.7386 3.88804 20.5701 1.70999 24.9667 0.524326C27.1627 -0.0828356 30.2389 -0.63268 32.2921 1.73732Z" fill="black"/>
<path fill-rule="evenodd" clip-rule="evenodd" d="M14.0967 31.9161C20.5322 32.3287 27.2306 31.2043 29.8179 28.8823C32.0055 26.9342 30.2152 26.2597 27.6945 27.8326C22.3891 31.2423 16.8838 29.7061 14.563 26.2597L15.1601 26.1477C26.3681 23.6378 33.3984 16.821 28.9554 12.9628C22.8518 7.64364 3.75105 12.4003 1.36242 19.8549C-0.826372 26.7469 4.87757 31.3543 14.0967 31.9161ZM20.996 13.338C22.9195 15.0609 20.5986 21.1665 13.6338 23.9384C13.4351 23.0759 13.4351 22.1402 13.5672 21.1665C14.9601 14.3491 18.9404 11.5405 20.996 13.338Z" fill="black"/>
</svg>
